With: Simon Phillips, Craig Conway and Richard E. Grant

James (Simon Philips) is een nietsnut als het om de vrouwtjes gaat. Daar lijkt verandering in te komen als hij kennis maakt met de zelfverklaarde vrouwenversierder en rokkenjager Ampersand (Craig Conway). Als James de duistere kant van het verleiden begint te ontdekken vraagt hij zich af of Ampersand wel de persoon is die hij beweert te zijn. Tijd voor James om zich af te vragen wat hij nou eigenlijk wil met zijn leven!

James is useless with women, but his luck changes under the tutelage of pick-up artist, Ampersand. As James learns the art of seduction he begins to wonder about Ampersand's intentions and questions what would truly make him happy in life. 
 
http://www.imdb.com/title/tt1727506	

------------------------ Dutch Friends ------------------------
---------------------------------------------------------------
- Bezoek ook eens mijn vrienden op:  http://www.Film-Test.nl --
----- voor mijn Nederlandse Sync. ondertitels ---- en meer ----
------- http://www.Film-Test.nl ---- Over Films en meer -------
---------------------------------------------------------------

General:

Complete name                    : How to Stop Being a LoserHow to Stop Being a Loser.avi
Format                           : AVI
Format/Info                      : Audio Video Interleave
File size                        : 1.50 GiB
Duration                         : 1h 44mn
Overall bit rate                 : 2 045 Kbps

Video:

Format                           : MPEG-4 Visual
Format profile                   : Simple@L3
Format settings, BVOP            : No
Format settings, QPel            : No
Format settings, GMC             : No warppoints
Format settings, Matrix          : Default (H.263)
Codec ID                         : XVID
Codec ID/Hint                    : XviD
Duration                         : 1h 44mn
Bit rate                         : 1 586 Kbps
Width                            : 720 pixels
Height                           : 304 pixels
Display aspect ratio             : 2.35:1
Frame rate                       : 25.000 fps
Color space                      : YUV
Chroma subsampling               : 4:2:0
Bit depth                        : 8 bits
Scan type                        : Progressive
Compression mode                 : Lossy
Bits/(Pixel*Frame)               : 0.290
Stream size                      : 1.16 GiB (78%)
Writing library                  : XviD 1.1.2 (UTC 2006-11-01)

Audio:

Format                           : AC-3
Format/Info                      : Audio Coding 3
Mode extension                   : CM (complete main)
Codec ID                         : 2000
Duration                         : 1h 44mn
Bit rate mode                    : Constant
Bit rate                         : 448 Kbps
Channel(s)                       : 6 channels
Channel positions                : Front: L C R, Side: L R, LFE
Sampling rate                    : 48.0 KHz
Bit depth                        : 16 bits
Compression mode                 : Lossy
Stream size                      : 336 MiB (22%)
Alignment                        : Aligned on interleaves
Interleave, duration             : 32 ms (0.80 video frame)
Interleave, preload duration     : 64 ms